<?xml version="1.0" encoding="UTF-8"?>
<svg xmlns="http://www.w3.org/2000/svg" id="filled_outline" data-name="filled outline" viewBox="0 0 512 512" width="512" height="512"><path d="M360,144V76A52,52,0,0,1,412,24h.0001a52,52,0,0,1,52,52V144Z" style="fill:#b36f42"/><path d="M464,256a90.67782,90.67782,0,0,1,6.42974-61.66107l2.51145-5.16243,3.78346-3.31053A33.01762,33.01762,0,0,0,488,161.01766v-.00005A33.01761,33.01761,0,0,0,454.98239,128H368.56854a40,40,0,0,0-28.28427,11.71573L320,160v40h48v56Z" style="fill:#f5a431"/><path d="M432,88v36a20,20,0,0,1-40,0V88Z" style="fill:#ffceb6"/><rect x="192" y="80" width="128" height="136" style="fill:#f7c04a"/><path d="M24,264V142.37007A46.37007,46.37007,0,0,1,70.37007,96h81.06139a40,40,0,0,1,28.28427,11.71573L192,120v64l-32-32V264Z" style="fill:#ed6445"/><polygon points="144 96 144 128 112 112 80 128 80 96 144 96" style="fill:#f79a7e"/><path d="M98,174.5,112,192h80l14.34315-14.34315a5.65684,5.65684,0,0,1,4-1.65685h0A5.65685,5.65685,0,0,1,216,181.65685V200l19.359,12.906A10.4222,10.4222,0,0,1,240,221.57779v0A10.4222,10.4222,0,0,1,229.57781,232H105.96264a40,40,0,0,1-29.89637-13.42545L61.33335,202v0L98,174.5Z" style="fill:#ffceb6"/><polygon points="136 496 96 320 72 496 24 496 24 264 160 264 200 496 136 496" style="fill:#445496"/><path d="M480,330.96a166.59623,166.59623,0,0,1-2.03,25.92l-.49,3.12L456,496H368V256h96l7.47,22.41992A166.26539,166.26539,0,0,1,480,330.96Z" style="fill:#ffceb6"/><path d="M480,330.96a166.59623,166.59623,0,0,1-2.03,25.92l-.49,3.12H368V256h96l7.47,22.41992A166.26539,166.26539,0,0,1,480,330.96Z" style="fill:#e8671c"/><polygon points="240 80 240 136 256 128 272 136 272 80 240 80" style="fill:#f7dfa1"/><path d="M88,56l-.00348,24a24,24,0,0,0,24,24h.00005a24,24,0,0,0,24-24V56Z" style="fill:#ffceb6"/><path d="M112,24h0a24,24,0,0,1,24,24v8a0,0,0,0,1,0,0H88a0,0,0,0,1,0,0V48A24,24,0,0,1,112,24Z" style="fill:#eb8117"/><path d="M432.00348,71.99654,432.007,88a24.00173,24.00173,0,0,1-24.00346,24h0A24.00345,24.00345,0,0,1,384,87.99654v-16l16-16v0a25.29929,25.29929,0,0,0,32.00031,16.001Z" style="fill:#ffceb6"/><path d="M449.6,209.6l-14.28922,12.50307A40,40,0,0,1,408.9706,232H282.42219A10.4222,10.4222,0,0,1,272,221.57781v0a10.4222,10.4222,0,0,1,4.641-8.67179L296,200V181.65685A5.65685,5.65685,0,0,1,301.65685,176h0a5.65684,5.65684,0,0,1,4,1.65685L320,192h80l17.77778-14.22223h0Z" style="fill:#ffceb6"/><path d="M97.96973,364.76465,128.19922,497.773l15.60156-3.5459-40-176a7.99993,7.99993,0,0,0-15.72754.6919l-24,176,15.85352,2.1621Z"/><path d="M472,123.71161V76a60,60,0,0,0-120,0v46.93176a47.84892,47.84892,0,0,0-17.373,11.12732L328,140.686V80a8.00008,8.00008,0,0,0-8-8H192a8.00008,8.00008,0,0,0-8,8v20.75183A47.65261,47.65261,0,0,0,151.43164,88H142.9834a31.942,31.942,0,0,0,1.01269-8V64H160V48H144a32,32,0,0,0-64,0l-.00391,32a31.942,31.942,0,0,0,1.0127,8H70.37012A54.43176,54.43176,0,0,0,16,142.37012V496H32V272H153.26123l38.855,225.35938,15.76758-2.71876L168,263.31543V240h61.57812a18.43581,18.43581,0,0,0,18.24366-16h16.35644a18.43581,18.43581,0,0,0,18.24366,16H360V496h16V368h24V496h16V368h52.11133L448.09766,494.75244l15.80468,2.49512L485.86914,358.125a174.16942,174.16942,0,0,0-6.80566-82.23438l-7.375-22.12255a82.81877,82.81877,0,0,1,5.93457-55.9292l1.80346-3.70691,2.56665-2.24573A41.00421,41.00421,0,0,0,472,123.71161ZM368,76a44,44,0,0,1,88,0v44.02582c-.33936-.0083-.67627-.02582-1.01758-.02582H440l-.00391-48.00537a8.00146,8.00146,0,0,0-10.53222-7.58643A17.31916,17.31916,0,0,1,407.583,53.4668a8.00044,8.00044,0,0,0-13.24707-3.127l-16,16a8.00036,8.00036,0,0,0-2.34278,5.65674v16A31.86341,31.86341,0,0,0,384,109.13818V120H368.56836c-.19019,0-.37842.01166-.56836.01385Zm23.99316,11.99658V75.31006l6.22754-6.227a33.46427,33.46427,0,0,0,25.77735,12.21533L424,88a16.00342,16.00342,0,0,1-32.00684-.00342ZM400,118.98859a31.96355,31.96355,0,0,0,24-3.29468V124a12,12,0,0,1-24,0Zm-54.05957,26.38446A31.793,31.793,0,0,1,368.56836,136H386.707a27.9917,27.9917,0,0,0,50.58594,0h17.68945A25.01782,25.01782,0,0,1,471.457,179.84521L449.9646,198.65063l-20.20972-20.20977,15.24219-12.19379-9.99414-12.49414L397.19336,184h-25.521a19.6569,19.6569,0,0,1-.46435-22.38965l3.44824-5.17285-13.3125-8.875-3.44824,5.17236A35.66953,35.66953,0,0,0,353.85864,184H328V163.3139ZM248,88h16v35.05566l-4.42188-2.21093a8.00257,8.00257,0,0,0-7.15624,0L248,123.05566ZM88,104h2.864a32.07215,32.07215,0,0,0,8.47657,5.38544L88,115.05566Zm7.99683-28.68286L107.314,64h20.68213V80a16,16,0,0,1-32,.00146ZM112,112v-.00012h0Zm21.12817-8H136v11.05566l-11.34424-5.67212A32.067,32.067,0,0,0,133.12817,104ZM112,32a16.01833,16.01833,0,0,1,16,16H96A16.01833,16.01833,0,0,1,112,32ZM70.37012,104H72v24a8.00009,8.00009,0,0,0,11.57812,7.15527L104,124.94434V152h16V124.94434l20.42188,10.21093A8,8,0,0,0,152,128V104.01385a31.77613,31.77613,0,0,1,22.05859,9.35871L184,123.314V164.686l-18.34277-18.34278A8.0001,8.0001,0,0,0,152,152v32H115.84473L86.24707,147.00244l-12.49414,9.99512,12.844,16.055-24.17431,18.1308L41.69238,167.86182A38.36974,38.36974,0,0,1,70.37012,104ZM180.686,184H168V171.31348ZM152,256H32V181.04163l38.08691,42.848A48.04131,48.04131,0,0,0,105.96289,240H152Zm77.57812-32H105.96289a32.02469,32.02469,0,0,1-23.917-10.74023l-8.957-10.07666,23.50781-17.63086,9.15625,11.44531A7.99951,7.99951,0,0,0,112,200h80a8.00076,8.00076,0,0,0,5.65723-2.34326L208,187.31348V200a8.00094,8.00094,0,0,0,3.5625,6.65674L230.92188,219.562A2.42267,2.42267,0,0,1,229.57812,224Zm40.40333-16h-27.9629a18.50239,18.50239,0,0,0-2.22167-1.75049L224,195.71826V181.65674A13.65738,13.65738,0,0,0,200.68555,172L200,172.68561V88h32v48a8,8,0,0,0,11.57812,7.15527L256,136.94434l12.42188,6.21093A8,8,0,0,0,280,136V88h32v84.68561l-.68848-.68854A13.65738,13.65738,0,0,0,288,181.65674v14.06152l-15.79688,10.53125A18.50239,18.50239,0,0,0,269.98145,208ZM280,221.57764a2.41827,2.41827,0,0,1,1.07812-2.01563l19.35938-12.90527A8.00094,8.00094,0,0,0,304,200V187.31348l10.34277,10.34326A8.00076,8.00076,0,0,0,320,200h80a7.998,7.998,0,0,0,4.99707-1.75293l12.18677-9.74933,20.7124,20.71247-7.85425,6.87231A31.9844,31.9844,0,0,1,408.9707,224H282.42188A2.42532,2.42532,0,0,1,280,221.57764ZM472,330.96338A158.68833,158.68833,0,0,1,470.58936,352H416V304H400v48H376V264h82.23364l5.65015,16.9502A157.85715,157.85715,0,0,1,472,330.96338ZM454.31372,248H376v-8h32.9707a47.97937,47.97937,0,0,0,31.60742-11.87646l14.4878-12.67652A98.90026,98.90026,0,0,0,454.31372,248Z"/></svg>
